<svg width="379" height="267" viewBox="0 0 379 267" fill="none" xmlns="http://www.w3.org/2000/svg">
<path d="M189.5 161.063C184.906 179.196 167.556 188.456 129.781 188.625C129.177 188.627 128.579 188.51 128.021 188.28C127.462 188.05 126.955 187.712 126.528 187.285C126.101 186.858 125.763 186.35 125.533 185.792C125.302 185.234 125.185 184.635 125.187 184.031L125.187 101.344C125.187 100.125 125.671 98.957 126.533 98.0955C127.394 97.234 128.563 96.75 129.781 96.75C166.531 96.75 180.729 89.3397 189.5 78.375M189.5 161.063C194.094 179.196 211.444 188.456 249.219 188.625C249.823 188.627 250.421 188.51 250.979 188.28C251.538 188.05 252.045 187.712 252.472 187.285C252.899 186.858 253.237 186.35 253.467 185.792C253.697 185.234 253.815 184.635 253.812 184.031V101.898C253.812 99.0613 252.055 96.75 249.219 96.75C212.469 96.75 198.219 89.2852 189.5 78.375M189.5 161.063V78.375" stroke="#5A5A5A" stroke-width="16" stroke-linecap="round" stroke-linejoin="round"/>
<path d="M86.5475 0H113.329L26.7818 267H0L86.5475 0Z" fill="#5A5A5A"/>
<path d="M352.218 0H379L292.452 267H265.671L352.218 0Z" fill="#5A5A5A"/>
</svg>
